<svg width="29" height="36" viewBox="0 0 29 36" fill="none" xmlns="http://www.w3.org/2000/svg">
<path d="M14.337 35.588C11.593 35.588 8.96333 35.2287 6.448 34.51C3.93267 33.7587 1.90733 32.795 0.372 31.619L3.067 25.641C4.537 26.6863 6.26833 27.552 8.261 28.238C10.2863 28.8913 12.328 29.218 14.386 29.218C15.954 29.218 17.2117 29.071 18.159 28.777C19.139 28.4503 19.8577 28.0093 20.315 27.454C20.7723 26.8987 21.001 26.2617 21.001 25.543C21.001 24.6283 20.6417 23.9097 19.923 23.387C19.2043 22.8317 18.257 22.3907 17.081 22.064C15.905 21.7047 14.5983 21.378 13.161 21.084C11.7563 20.7573 10.3353 20.3653 8.898 19.908C7.49333 19.4507 6.203 18.8627 5.027 18.144C3.851 17.4253 2.88733 16.478 2.136 15.302C1.41733 14.126 1.058 12.6233 1.058 10.794C1.058 8.834 1.58067 7.05367 2.626 5.453C3.704 3.81966 5.30467 2.52933 7.428 1.582C9.584 0.601999 12.279 0.111999 15.513 0.111999C17.669 0.111999 19.7923 0.373332 21.883 0.895998C23.9737 1.386 25.8193 2.13733 27.42 3.15L24.97 9.177C23.3693 8.26233 21.7687 7.59267 20.168 7.168C18.5673 6.71067 16.9993 6.482 15.464 6.482C13.9287 6.482 12.671 6.66167 11.691 7.021C10.711 7.38033 10.0087 7.854 9.584 8.442C9.15933 8.99733 8.947 9.65066 8.947 10.402C8.947 11.284 9.30633 12.0027 10.025 12.558C10.7437 13.0807 11.691 13.5053 12.867 13.832C14.043 14.1587 15.3333 14.4853 16.738 14.812C18.1753 15.1387 19.5963 15.5143 21.001 15.939C22.4383 16.3637 23.745 16.9353 24.921 17.654C26.097 18.3727 27.0443 19.32 27.763 20.496C28.5143 21.672 28.89 23.1583 28.89 24.955C28.89 26.8823 28.351 28.6463 27.273 30.247C26.195 31.8477 24.578 33.138 22.422 34.118C20.2987 35.098 17.6037 35.588 14.337 35.588Z" fill="#006AFF"/>
</svg>
